<svg width="22" height="22" viewBox="0 0 22 22" fill="none" xmlns="http://www.w3.org/2000/svg">
<path d="M21.6564 0.345119C21.4957 0.184473 21.2921 0.0736955 21.0699 0.0261234C20.8477 -0.0214487 20.6165 -0.00378758 20.4042 0.0769806L0.759433 7.51266H0.755505C0.528999 7.59978 0.334907 7.7547 0.199739 7.95626C0.064571 8.15782 -0.00508353 8.39619 0.000288972 8.63882C0.00566148 8.88145 0.0857991 9.11651 0.229757 9.31188C0.373714 9.50726 0.574472 9.65344 0.804613 9.73045L0.824747 9.73683L7.5673 12.6161C7.69881 12.6561 7.83849 12.6608 7.9724 12.6298C8.10631 12.5989 8.22976 12.5334 8.33044 12.4398L19.1519 2.35616C19.1842 2.32391 19.2224 2.29833 19.2646 2.28088C19.3067 2.26343 19.3518 2.25445 19.3974 2.25445C19.4431 2.25445 19.4882 2.26343 19.5303 2.28088C19.5725 2.29833 19.6107 2.32391 19.643 2.35616C19.6752 2.3884 19.7008 2.42668 19.7183 2.46881C19.7357 2.51094 19.7447 2.5561 19.7447 2.6017C19.7447 2.64731 19.7357 2.69246 19.7183 2.73459C19.7008 2.77672 19.6752 2.81501 19.643 2.84725L9.55912 13.6641C9.46556 13.7648 9.40004 13.8883 9.36911 14.0222C9.33817 14.1561 9.3429 14.2958 9.38282 14.4273L12.263 21.174C12.266 21.1838 12.2689 21.1926 12.2723 21.2019C12.4295 21.6572 12.8273 21.9784 13.308 22H13.3571C13.5999 22.0014 13.8374 21.9297 14.0388 21.7943C14.2402 21.6589 14.3963 21.466 14.4866 21.2407L21.9211 1.60085C22.003 1.38834 22.0216 1.15665 21.9747 0.9338C21.9277 0.710947 21.8172 0.506477 21.6564 0.345119Z" fill="#40A9FF"/>
</svg>
