<svg width="43" height="54" viewBox="0 0 43 54" fill="none" xmlns="http://www.w3.org/2000/svg">
<path d="M9.59985 15.7931C9.59985 13.6255 9.59985 12.5417 10.0218 11.7134C10.3929 10.9851 10.985 10.393 11.7133 10.0219C12.5416 9.59998 13.6254 9.59998 15.793 9.59998H26.631C28.7986 9.59998 29.8824 9.59998 30.7108 10.0219C31.4391 10.393 32.0312 10.9851 32.4023 11.7134C32.8242 12.5417 32.8242 13.6255 32.8242 15.7931V41.5431C32.8242 42.4837 32.8242 42.954 32.6287 43.2114C32.5442 43.3233 32.4364 43.4156 32.3128 43.4817C32.1892 43.5479 32.0526 43.5864 31.9126 43.5946C31.5894 43.6139 31.1985 43.3527 30.4166 42.832L21.212 36.695L12.0074 42.8301C11.2256 43.3527 10.8346 43.6139 10.5095 43.5946C10.3698 43.5861 10.2336 43.5475 10.1103 43.4813C9.98706 43.4152 9.87958 43.3231 9.79532 43.2114C9.59985 42.954 9.59985 42.4837 9.59985 41.5431V15.7931Z" stroke="#7CC4FF" stroke-width="2.90304" stroke-linecap="round" stroke-linejoin="round"/>
</svg>
