<svg width="127" height="137" viewBox="0 0 127 137" fill="none" xmlns="http://www.w3.org/2000/svg">
<g filter="url(#filter0_d_195_392)">
<ellipse cx="63" cy="62.5" rx="43" ry="42.5" fill="white"/>
</g>
<mask id="mask0_195_392" style="mask-type:alpha" maskUnits="userSpaceOnUse" x="20" y="20" width="87" height="85">
<ellipse cx="63.2" cy="62.45" rx="43.2" ry="42.45" fill="#D9D9D9"/>
</mask>
<g mask="url(#mask0_195_392)">
<path d="M84.3636 88H89V60.1818H84.3636V50.9091H79.7273V46.2727H75.0909V41.6364H70.4545V50.9091H75.0909V64.8182H79.7273V83.3636H84.3636V88ZM38 78.7273H42.6364V64.8182H38V78.7273ZM42.6364 83.3636H56.5455V78.7273H42.6364V83.3636ZM61.1818 88H65.8182V78.7273H70.4545V74.0909H56.5455V78.7273H61.1818V88ZM42.6364 64.8182H47.2727V55.5455H42.6364V64.8182ZM70.4545 74.0909H75.0909V69.4545H70.4545V74.0909ZM61.1818 64.8182H65.8182V55.5455H61.1818V64.8182ZM47.2727 55.5455H51.9091V50.9091H65.8182V41.6364H56.5455V34.5H51.9091V41.6364H47.2727V55.5455ZM65.8182 41.6364H70.4545V34.5H65.8182V41.6364Z" fill="#7CC4FF" fill-opacity="0.5"/>
<path d="M83.1329 43H78.4999V39.9355H63.0738H51.4728V43H46.9999V46H42.623L42.6231 55.5L47 55.5L46.9999 46H51.4728V43H63.0738H78.4999V47H83.1329V55.9613H76.6083V71.9871H82.4088V75.9936H70.8078V80H86.2758V71.9871H90.1428V55.9613L86.9999 56L86.866 47H83.1329V43ZM80.4753 59.9678H86.2758V67.9807H80.4753V59.9678Z" fill="#72BEFF"/>
</g>
<defs>
<filter id="filter0_d_195_392" x="-10" y="-8" width="146" height="145" filterUnits="userSpaceOnUse" color-interpolation-filters="sRGB">
<feFlood flood-opacity="0" result="BackgroundImageFix"/>
<feColorMatrix in="SourceAlpha" type="matrix" values="0 0 0 0 0 0 0 0 0 0 0 0 0 0 0 0 0 0 127 0" result="hardAlpha"/>
<feOffset dy="2"/>
<feGaussianBlur stdDeviation="15"/>
<feComposite in2="hardAlpha" operator="out"/>
<feColorMatrix type="matrix" values="0 0 0 0 0 0 0 0 0 0 0 0 0 0 0 0 0 0 0.1 0"/>
<feBlend mode="normal" in2="BackgroundImageFix" result="effect1_dropShadow_195_392"/>
<feBlend mode="normal" in="SourceGraphic" in2="effect1_dropShadow_195_392" result="shape"/>
</filter>
</defs>
</svg>
