<svg width="40" height="40" viewBox="0 0 40 40" fill="none" xmlns="http://www.w3.org/2000/svg">
<path fill-rule="evenodd" clip-rule="evenodd" d="M20 4.99999C21.9698 4.99998 23.9204 5.38796 25.7402 6.14177C27.5601 6.89559 29.2137 8.00048 30.6066 9.39335C31.9995 10.7862 33.1044 12.4398 33.8582 14.2597C34.612 16.0796 35 18.0301 35 20C35 28.2843 28.2843 35 20 35C11.7158 35 5 28.2843 5 20C5 11.7157 11.7158 4.99999 20 4.99999ZM21.5 21.5H18.5C14.7864 21.5 11.5983 23.7491 10.2232 26.9596C12.3989 30.0106 15.9671 32 20 32C24.0328 32 27.601 30.0106 29.7769 26.9594C28.4018 23.7491 25.2136 21.5 21.5 21.5ZM20 9.49999C17.5147 9.49999 15.5 11.5147 15.5 14C15.5 16.4853 17.5147 18.5 20 18.5C22.4852 18.5 24.5 16.4853 24.5 14C24.5 11.5147 22.4853 9.49999 20 9.49999Z" fill="#BBCAD3"/>
</svg>
