<svg width="40" height="40" viewBox="0 0 40 40" fill="none" xmlns="http://www.w3.org/2000/svg">
<path d="M12.7998 13.3007C12.7998 11.9567 12.7998 11.2847 13.0614 10.7711C13.2915 10.3195 13.6586 9.95238 14.1102 9.72229C14.6238 9.46069 15.2958 9.46069 16.6398 9.46069H23.3598C24.7038 9.46069 25.3758 9.46069 25.8894 9.72229C26.341 9.95238 26.7081 10.3195 26.9382 10.7711C27.1998 11.2847 27.1998 11.9567 27.1998 13.3007V29.2667C27.1998 29.8499 27.1998 30.1415 27.0786 30.3011C27.0262 30.3705 26.9594 30.4277 26.8827 30.4687C26.8061 30.5098 26.7214 30.5336 26.6346 30.5387C26.4342 30.5507 26.1918 30.3887 25.707 30.0659L19.9998 26.2607L14.2926 30.0647C13.8078 30.3887 13.5654 30.5507 13.3638 30.5387C13.2772 30.5335 13.1928 30.5095 13.1163 30.4685C13.0399 30.4275 12.9732 30.3704 12.921 30.3011C12.7998 30.1415 12.7998 29.8499 12.7998 29.2667V13.3007Z" fill="#40A9FF" stroke="#40A9FF" stroke-width="1.8" stroke-linecap="round" stroke-linejoin="round"/>
</svg>
