<svg width="40" height="40" viewBox="0 0 40 40" fill="none" xmlns="http://www.w3.org/2000/svg">
<path d="M19.5996 8.59961C19.7587 8.59961 19.9119 8.66293 20.0244 8.77539C20.1369 8.88791 20.2002 9.04107 20.2002 9.2002V11.0068L20.7002 11.0908C21.5107 11.2279 22.2882 11.5158 22.9932 11.9385L23.6758 12.3477L23.8818 11.5781C23.996 11.1514 24.226 10.7646 24.5459 10.46C24.8659 10.1553 25.2634 9.94469 25.6953 9.85156C26.1271 9.75846 26.5762 9.786 26.9932 9.93164C27.4103 10.0774 27.7797 10.3358 28.0596 10.6777C28.3394 11.0196 28.5196 11.4324 28.5801 11.8701C28.6405 12.3077 28.5789 12.7533 28.4023 13.1582C28.2258 13.5631 27.9409 13.9116 27.5791 14.165C27.2172 14.4185 26.7916 14.5672 26.3506 14.5947L25.5576 14.6445L25.8223 15.3936C26.0726 16.1019 26.2009 16.8483 26.2002 17.5996V25.4004H28C28.3286 25.4004 28.5996 25.6714 28.5996 26C28.5996 26.3286 28.3286 26.5996 28 26.5996H22.5996V28.4004C22.5995 29.1959 22.2841 29.959 21.7217 30.5215C21.1591 31.0841 20.3953 31.4004 19.5996 31.4004C18.8041 31.4003 18.041 31.084 17.4785 30.5215C16.916 29.959 16.5997 29.1959 16.5996 28.4004V26.5996H11.2002C10.8716 26.5996 10.5996 26.3286 10.5996 26C10.5996 25.6714 10.8716 25.4004 11.2002 25.4004H13V17.5996C12.9998 16.0398 13.5519 14.5302 14.5586 13.3389C15.5654 12.1474 16.9619 11.3508 18.5 11.0908L19 11.0068V9.2002C19 9.04107 19.0633 8.88791 19.1758 8.77539C19.2882 8.66308 19.4407 8.59971 19.5996 8.59961ZM17.7998 28.4004C17.7999 28.8776 17.9897 29.3354 18.3271 29.6729C18.6646 30.0103 19.1224 30.2001 19.5996 30.2002C20.077 30.2002 20.5355 30.0104 20.873 29.6729C21.2105 29.3354 21.4003 28.8776 21.4004 28.4004V26.5996H17.7998V28.4004ZM19.5996 12.2002C18.1676 12.2003 16.7939 12.7686 15.7812 13.7812C14.7686 14.7939 14.2003 16.1676 14.2002 17.5996V25.4004H25V17.5996C24.9999 16.1676 24.4306 14.7939 23.418 13.7812C22.4053 12.7688 21.0316 12.2002 19.5996 12.2002Z" fill="#D1E9FC" stroke="#D1E9FC" stroke-width="1.2"/>
<circle cx="26" cy="13" r="4" fill="#D1E9FC"/>
</svg>
