<svg width="130" height="21" viewBox="0 0 130 21" fill="none" xmlns="http://www.w3.org/2000/svg">
<path d="M4.87031 0H12.4172C13.0641 0 13.6359 0.4125 13.8422 1.02656L14.6578 3.47344C14.8641 4.0875 15.4359 4.5 16.0828 4.5H18.9188C19.9406 4.5 20.6672 5.50313 20.3438 6.47344L18 13.5H6L3.40781 1.82344C3.19687 0.890625 3.90938 0 4.87031 0ZM2.25 10.5H3.02812L3.80156 13.9875C4.03125 15.0187 4.94531 15.75 6 15.75H18C18.9703 15.75 19.8281 15.1313 20.1328 14.2125L21.3703 10.5H21.75C22.9922 10.5 24 11.5078 24 12.75V18.75C24 19.9922 22.9922 21 21.75 21H2.25C1.00781 21 0 19.9922 0 18.75V12.75C0 11.5078 1.00781 10.5 2.25 10.5Z" fill="#40A9FF"/>
<path d="M39.7 11.58V5.56C39.7 4.88 39.9 4.32667 40.3 3.9C40.7 3.47333 41.2467 3.26 41.94 3.26C42.6333 3.26 43.18 3.47333 43.58 3.9C43.98 4.32667 44.18 4.88 44.18 5.56V16.14C44.18 16.8867 43.94 17.44 43.46 17.8C42.9933 18.16 42.3667 18.34 41.58 18.34C40.9533 18.34 40.44 18.22 40.04 17.98C39.6533 17.7267 39.2467 17.2467 38.82 16.54L35 10.26H34.96V15.94C34.96 16.7133 34.7667 17.3067 34.38 17.72C33.9933 18.1333 33.44 18.34 32.72 18.34C32 18.34 31.4467 18.1333 31.06 17.72C30.6733 17.3067 30.48 16.7133 30.48 15.94V5.72C30.48 4.93333 30.7 4.32667 31.14 3.9C31.5933 3.47333 32.2533 3.26 33.12 3.26C34.24 3.26 35.0733 3.72667 35.62 4.66L39.66 11.58H39.7ZM56.8202 10.8C56.8202 9.58667 56.5802 8.62667 56.1002 7.92C55.6202 7.21333 54.9135 6.86 53.9802 6.86C53.0468 6.86 52.3402 7.21333 51.8602 7.92C51.3802 8.62667 51.1402 9.58667 51.1402 10.8C51.1402 12.0133 51.3802 12.9733 51.8602 13.68C52.3402 14.3867 53.0468 14.74 53.9802 14.74C54.9135 14.74 55.6202 14.3867 56.1002 13.68C56.5802 12.9733 56.8202 12.0133 56.8202 10.8ZM46.5402 10.8C46.5402 9.58667 46.7402 8.50667 47.1402 7.56C47.5402 6.6 48.0935 5.8 48.8002 5.16C49.5068 4.52 50.3002 4.04667 51.1802 3.74C52.0735 3.42 53.0068 3.26 53.9802 3.26C54.9535 3.26 55.8868 3.42 56.7802 3.74C57.6735 4.06 58.4668 4.54 59.1602 5.18C59.8668 5.80667 60.4202 6.6 60.8202 7.56C61.2202 8.50667 61.4202 9.58667 61.4202 10.8C61.4202 12.0533 61.2202 13.16 60.8202 14.12C60.4202 15.08 59.8735 15.8733 59.1802 16.5C58.4868 17.1133 57.6935 17.5733 56.8002 17.88C55.9202 18.1867 54.9802 18.34 53.9802 18.34C52.9802 18.34 52.0335 18.1867 51.1402 17.88C50.2602 17.5733 49.4735 17.1133 48.7802 16.5C48.0868 15.8733 47.5402 15.08 47.1402 14.12C46.7402 13.16 46.5402 12.0533 46.5402 10.8ZM66.6153 7.32H63.8353C63.2086 7.32 62.7353 7.15333 62.4153 6.82C62.1086 6.48667 61.9553 6.03333 61.9553 5.46C61.9553 4.87333 62.122 4.42 62.4553 4.1C62.7886 3.76667 63.302 3.6 63.9953 3.6H73.8353C74.542 3.6 75.0553 3.76667 75.3753 4.1C75.7086 4.42 75.8753 4.87333 75.8753 5.46C75.8753 6.03333 75.7153 6.48667 75.3953 6.82C75.0886 7.15333 74.622 7.32 73.9953 7.32H71.2153V15.78C71.2153 16.5533 71.0086 17.16 70.5953 17.6C70.182 18.04 69.622 18.26 68.9153 18.26C68.2086 18.26 67.6486 18.04 67.2353 17.6C66.822 17.16 66.6153 16.5533 66.6153 15.78V7.32ZM77.7089 15.78V5.82C77.7089 5.04667 77.9156 4.44 78.3289 4C78.7422 3.56 79.3022 3.34 80.0089 3.34C80.7156 3.34 81.2756 3.56 81.6889 4C82.1022 4.44 82.3089 5.04667 82.3089 5.82V15.78C82.3089 16.5533 82.1022 17.16 81.6889 17.6C81.2756 18.04 80.7156 18.26 80.0089 18.26C79.3022 18.26 78.7422 18.04 78.3289 17.6C77.9156 17.16 77.7089 16.5533 77.7089 15.78ZM92.8028 13.9C92.8028 13.62 92.7028 13.4067 92.5028 13.26C92.3161 13.1133 91.9961 12.9733 91.5428 12.84L88.4828 11.96C87.3228 11.6267 86.4361 11.12 85.8228 10.44C85.2228 9.76 84.9228 8.92 84.9228 7.92C84.9228 7.29333 85.0295 6.70667 85.2428 6.16C85.4561 5.6 85.7895 5.10667 86.2428 4.68C86.6961 4.24 87.2761 3.89333 87.9828 3.64C88.7028 3.38667 89.5495 3.26 90.5228 3.26C91.2561 3.26 91.9695 3.31333 92.6628 3.42C93.3695 3.51333 94.0228 3.68 94.6228 3.92C95.2228 4.14667 95.7028 4.46 96.0628 4.86C96.4361 5.26 96.6228 5.74667 96.6228 6.32C96.6228 6.86667 96.4361 7.30667 96.0628 7.64C95.6895 7.97333 95.2095 8.14 94.6228 8.14C94.3161 8.14 94.0561 8.08 93.8428 7.96C93.6428 7.84 93.4028 7.64667 93.1228 7.38C92.7628 7.06 92.4228 6.81333 92.1028 6.64C91.7828 6.46667 91.3428 6.38 90.7828 6.38C90.3561 6.38 89.9961 6.46667 89.7028 6.64C89.4228 6.8 89.2828 7.03333 89.2828 7.34C89.2828 7.64667 89.4028 7.88667 89.6428 8.06C89.8961 8.22 90.2895 8.37333 90.8228 8.52L93.2028 9.16C94.5228 9.52 95.5295 10.0333 96.2228 10.7C96.9295 11.3533 97.2828 12.2667 97.2828 13.44C97.2828 14.2667 97.1161 14.9933 96.7828 15.62C96.4628 16.2333 96.0228 16.7467 95.4628 17.16C94.9028 17.56 94.2628 17.8533 93.5428 18.04C92.8361 18.24 92.0895 18.34 91.3028 18.34C90.1695 18.34 89.1895 18.2267 88.3628 18C87.5361 17.7867 86.8761 17.5 86.3828 17.14C85.8895 16.78 85.5295 16.4067 85.3028 16.02C85.0895 15.62 84.9828 15.24 84.9828 14.88C84.9828 14.32 85.1628 13.8667 85.5228 13.52C85.8961 13.1733 86.3628 13 86.9228 13C87.2561 13 87.5428 13.08 87.7828 13.24C88.0228 13.3867 88.3028 13.6133 88.6228 13.92C89.0095 14.3067 89.3695 14.6 89.7028 14.8C90.0361 15 90.4761 15.1 91.0228 15.1C91.5428 15.1 91.9695 15.0067 92.3028 14.82C92.6361 14.62 92.8028 14.3133 92.8028 13.9ZM107.236 13.9C107.236 13.62 107.136 13.4067 106.936 13.26C106.75 13.1133 106.43 12.9733 105.976 12.84L102.916 11.96C101.756 11.6267 100.87 11.12 100.256 10.44C99.6564 9.76 99.3564 8.92 99.3564 7.92C99.3564 7.29333 99.4631 6.70667 99.6764 6.16C99.8897 5.6 100.223 5.10667 100.676 4.68C101.13 4.24 101.71 3.89333 102.416 3.64C103.136 3.38667 103.983 3.26 104.956 3.26C105.69 3.26 106.403 3.31333 107.096 3.42C107.803 3.51333 108.456 3.68 109.056 3.92C109.656 4.14667 110.136 4.46 110.496 4.86C110.87 5.26 111.056 5.74667 111.056 6.32C111.056 6.86667 110.87 7.30667 110.496 7.64C110.123 7.97333 109.643 8.14 109.056 8.14C108.75 8.14 108.49 8.08 108.276 7.96C108.076 7.84 107.836 7.64667 107.556 7.38C107.196 7.06 106.856 6.81333 106.536 6.64C106.216 6.46667 105.776 6.38 105.216 6.38C104.79 6.38 104.43 6.46667 104.136 6.64C103.856 6.8 103.716 7.03333 103.716 7.34C103.716 7.64667 103.836 7.88667 104.076 8.06C104.33 8.22 104.723 8.37333 105.256 8.52L107.636 9.16C108.956 9.52 109.963 10.0333 110.656 10.7C111.363 11.3533 111.716 12.2667 111.716 13.44C111.716 14.2667 111.55 14.9933 111.216 15.62C110.896 16.2333 110.456 16.7467 109.896 17.16C109.336 17.56 108.696 17.8533 107.976 18.04C107.27 18.24 106.523 18.34 105.736 18.34C104.603 18.34 103.623 18.2267 102.796 18C101.97 17.7867 101.31 17.5 100.816 17.14C100.323 16.78 99.9631 16.4067 99.7364 16.02C99.5231 15.62 99.4164 15.24 99.4164 14.88C99.4164 14.32 99.5964 13.8667 99.9564 13.52C100.33 13.1733 100.796 13 101.356 13C101.69 13 101.976 13.08 102.216 13.24C102.456 13.3867 102.736 13.6133 103.056 13.92C103.443 14.3067 103.803 14.6 104.136 14.8C104.47 15 104.91 15.1 105.456 15.1C105.976 15.1 106.403 15.0067 106.736 14.82C107.07 14.62 107.236 14.3133 107.236 13.9ZM123.39 12.38V5.82C123.39 5.04667 123.597 4.44 124.01 4C124.423 3.56 124.983 3.34 125.69 3.34C126.397 3.34 126.957 3.56 127.37 4C127.783 4.44 127.99 5.04667 127.99 5.82V12.42C127.99 13.4867 127.817 14.4 127.47 15.16C127.137 15.92 126.657 16.5333 126.03 17C125.417 17.4667 124.69 17.8067 123.85 18.02C123.023 18.2333 122.097 18.34 121.07 18.34C120.043 18.34 119.11 18.2333 118.27 18.02C117.443 17.8067 116.717 17.4667 116.09 17C115.477 16.5333 114.997 15.92 114.65 15.16C114.317 14.4 114.15 13.4867 114.15 12.42V5.82C114.15 5.04667 114.357 4.44 114.77 4C115.183 3.56 115.743 3.34 116.45 3.34C117.157 3.34 117.717 3.56 118.13 4C118.543 4.44 118.75 5.04667 118.75 5.82V12.38C118.75 13.1667 118.937 13.78 119.31 14.22C119.697 14.6467 120.283 14.86 121.07 14.86C121.857 14.86 122.437 14.6467 122.81 14.22C123.197 13.78 123.39 13.1667 123.39 12.38Z" fill="#40A9FF"/>
</svg>
